# xmcd CD database file
#
# Track frame offsets:
#	150
#	1108
#	21172
#	40548
#	66919
#	87881
#	107079
#	138128
#	169504
#	194204
#	222447
#	241246
#	261298
#	291968
#	314679
#
# Disc length: 4468 seconds
#
# Revision: 2
# Processed by: cddbd v1.5.2PL0 Copyright (c) Steve Scherf et al.
# Submitted via: CDex 1.51
#
DISCID=d411720f
DTITLE=Adams, Douglas - Per Anhalter durch die Galaxis
DYEAR=2009
DGENRE=Hörbuch
TTITLE0=01 Per Anhalter durch die Galaxis
TTITLE1=02 Per Anhalter durch die Galaxis
TTITLE2=03 Per Anhalter durch die Galaxis
TTITLE3=04 Per Anhalter durch die Galaxis
TTITLE4=05 Per Anhalter durch die Galaxis
TTITLE5=06 Per Anhalter durch die Galaxis
TTITLE6=07 Per Anhalter durch die Galaxis
TTITLE7=08 Per Anhalter durch die Galaxis
TTITLE8=09 Per Anhalter durch die Galaxis
TTITLE9=10 Per Anhalter durch die Galaxis
TTITLE10=11 Per Anhalter durch die Galaxis
TTITLE11=12 Per Anhalter durch die Galaxis
TTITLE12=13 Per Anhalter durch die Galaxis
TTITLE13=14 Per Anhalter durch die Galaxis
TTITLE14=15 Per Anhalter durch die Galaxis
EXTD=YEAR: 2009
EXTT0=
EXTT1=
EXTT2=
EXTT3=
EXTT4=
EXTT5=
EXTT6=
EXTT7=
EXTT8=
EXTT9=
EXTT10=
EXTT11=
EXTT12=
EXTT13=
EXTT14=
PLAYORDER=
